<?xml version="1.0" encoding="iso-8859-1"?>
<!-- Uploaded to: SVG Repo, www.svgrepo.com, Generator: SVG Repo Mixer Tools -->
<svg height="800px" width="800px" version="1.1" id="Layer_1" xmlns="http://www.w3.org/2000/svg" xmlns:xlink="http://www.w3.org/1999/xlink" 
	 viewBox="0 0 512 512" xml:space="preserve">
<polygon style="fill:#ABB9C6;" points="346.4,478.938 165.605,478.938 178.512,448.737 183.427,437.253 194.153,412.162 
	317.852,412.162 328.578,437.253 333.492,448.737 "/>
<polygon style="fill:#93A0AA;" points="328.578,437.253 183.427,437.253 194.153,412.162 317.852,412.162 "/>
<path style="fill:#B6C7D3;" d="M393.462,490.425H118.535l0,0c9.791-14.369,26.054-22.967,43.442-22.967h188.043
	C367.408,467.458,383.67,476.056,393.462,490.425L393.462,490.425z"/>
<path style="fill:#ABB9C6;" d="M512,55.095v326.991c0,18.511-14.997,33.52-33.509,33.52H33.509C14.997,415.606,0,400.597,0,382.086
	V55.095c0-18.511,14.997-33.52,33.509-33.52h444.983C497.003,21.575,512,36.584,512,55.095z"/>
<path style="fill:#C5D6E2;" d="M512,55.095v326.991c0,18.511-14.997,33.52-33.509,33.52H180.898l24.552-59.875L342.47,21.575
	h136.021C497.003,21.575,512,36.584,512,55.095z"/>
<path style="fill:#93A0AA;" d="M256.002,393.214c-3.448,0-6.634-2.135-7.958-5.317c-1.465-3.521-0.359-7.694,2.622-10.058
	c6.24-4.949,15.53,0.968,13.723,8.703C263.49,390.388,259.968,393.214,256.002,393.214z"/>
<path style="fill:#B8E9F2;" d="M512,55.095v300.636H0V55.095c0-18.51,14.999-33.52,33.509-33.52h444.983
	C497.003,21.575,512,36.585,512,55.095"/>
<path style="fill:#D4F7FC;" d="M512,55.095v300.636H205.45L342.47,21.575h136.021C497.003,21.575,512,36.585,512,55.095"/>
<path style="fill:#BC9640;" d="M321.591,174.01c-4.756,0-8.613-3.856-8.613-8.613v-57.701c0-15.671-12.749-28.42-28.42-28.42
	c-15.67,0-28.419,12.749-28.419,28.42v57.701c0,4.756-3.856,8.613-8.613,8.613c-4.756,0-8.613-3.856-8.613-8.613v-57.701
	c0-25.169,20.476-45.645,45.644-45.645c25.169,0,45.645,20.476,45.645,45.645v57.701C330.204,170.155,326.348,174.01,321.591,174.01
	"/>
<polyline style="fill:#508FB2;" points="363.694,113.724 294.032,113.724 294.032,306.636 363.694,306.636 363.694,113.724 "/>
<polyline style="fill:#609DC6;" points="305.05,113.724 148.31,113.724 148.31,306.636 305.05,306.636 305.05,113.724 "/>
<path style="fill:#E8D358;" d="M263.712,174.01c-4.756,0-8.613-3.856-8.613-8.613v-57.701c0-15.67-12.749-28.42-28.42-28.42
	c-15.67,0-28.419,12.749-28.419,28.42v57.702c0,4.756-3.856,8.613-8.613,8.613c-4.756,0-8.613-3.856-8.613-8.613v-57.702
	c0-25.168,20.476-45.645,45.644-45.645s45.645,20.476,45.645,45.645v57.702C272.325,170.155,268.469,174.01,263.712,174.01z"/>
<path style="fill:#D4F7FC;" d="M311.208,97.817l-6.523,15.908h0.365h7.928v-6.028C312.978,104.225,312.353,100.896,311.208,97.817
	 M478.491,21.575H342.47l-23.182,56.533c6.803,7.974,10.915,18.309,10.915,29.588v6.028h33.49v192.912h-69.662H225.58
	l-20.132,49.095h306.55V55.095C512,36.585,497.003,21.575,478.491,21.575"/>
<path style="fill:#C7A964;" d="M319.29,78.108l-8.081,19.709l0,0c1.145,3.079,1.771,6.408,1.771,9.88v6.028h17.225v-6.028
	C330.204,96.417,326.093,86.082,319.29,78.108L319.29,78.108"/>
<polyline style="fill:#71A3BF;" points="363.694,113.724 330.204,113.724 312.978,113.724 305.05,113.724 305.05,306.636 
	294.032,306.636 363.694,306.636 363.694,113.724 "/>
<polyline style="fill:#7EAECF;" points="305.05,113.724 304.685,113.724 225.582,306.636 294.032,306.636 305.05,306.636 
	305.05,113.724 "/>
</svg>